<svg xmlns="http://www.w3.org/2000/svg" width="750" height="1000" viewBox="0 0 750 1000">
<defs>
 <linearGradient id="bg" x2="0" y2="1"><stop stop-color="#1b1812"/><stop offset="1" stop-color="#0d100d"/></linearGradient>
 <linearGradient id="island" x1="0" y1="0" x2=".9" y2="1"><stop stop-color="#c0b478"/><stop offset=".42" stop-color="#91a05c"/><stop offset="1" stop-color="#536e43"/></linearGradient>
 <linearGradient id="sea" x2="0" y2="1"><stop stop-color="#4e8793"/><stop offset="1" stop-color="#244c61"/></linearGradient>
 <linearGradient id="stone" x2="0" y2="1"><stop stop-color="#d2c39c"/><stop offset="1" stop-color="#78684e"/></linearGradient>
 <linearGradient id="red" x2="0" y2="1"><stop stop-color="#bd563b"/><stop offset="1" stop-color="#772f27"/></linearGradient>
 <filter id="shadow" x="-30%" y="-30%" width="170%" height="190%"><feDropShadow dx="0" dy="7" stdDeviation="6" flood-color="#0d160f" flood-opacity=".52"/></filter>
 <pattern id="waves" width="36" height="20" patternUnits="userSpaceOnUse"><path d="M0 7q9-5 18 0t18 0M-18 17q9-5 18 0t18 0t18 0" fill="none" stroke="#a5d0c7" stroke-width="1.4" opacity=".42"/></pattern>
 <pattern id="tile" width="18" height="14" patternUnits="userSpaceOnUse"><rect width="18" height="14" fill="#c8b58a"/><path d="M1 1h7v5H1zm9 7h7v5h-7z" fill="#9d8963"/></pattern>
</defs>
<rect width="750" height="1000" rx="28" fill="url(#bg)"/>
<text x="24" y="34" fill="#f5ecd7" font-family="Arial" font-size="13" font-weight="700">9:41</text><text x="675" y="34" fill="#f5ecd7" font-family="Arial" font-size="12">▮▮▮ ◉</text>
<rect x="16" y="51" width="718" height="75" rx="15" fill="#29251d" stroke="#635438"/>
<rect x="31" y="67" width="43" height="42" rx="11" fill="#403727" stroke="#91784a"/><path d="M54 76a11 11 0 1 0 9 16M63 76v8h-8" fill="none" stroke="#f3e3bc" stroke-width="2.5"/>
<text x="91" y="77" fill="#d7b45f" font-family="Arial" font-size="10" font-weight="800" letter-spacing="1.7">ШТУРМ · ЛЕГИОНЫ</text><text x="91" y="102" fill="#f3e8cc" font-family="Georgia" font-size="24" font-weight="700">Переправа</text><text x="91" y="117" fill="#b8ad93" font-family="Arial" font-size="10">Захватить каструм · ход 4</text>
<rect x="636" y="68" width="82" height="42" rx="12" fill="#403727" stroke="#766344"/><text x="677" y="94" fill="#eee2c5" text-anchor="middle" font-family="Arial" font-size="14" font-weight="800">Ⅱ  ПАУЗА</text>
<!-- landmass -->
<rect x="16" y="137" width="718" height="741" rx="18" fill="#181a15" stroke="#534632"/>
<path d="M79 212 127 177 190 187 234 160 300 184 349 160 411 183 467 164 521 185 580 177 628 208 657 265 646 325 671 379 650 441 669 500 643 555 657 614 629 668 649 723 624 789 574 839 508 851 445 835 381 856 314 834 249 850 185 828 132 800 104 747 119 683 91 626 104 562 78 506 99 445 80 385 103 329 85 273z" fill="#314338" opacity=".75" transform="translate(0 10)"/>
<path d="M79 212 127 177 190 187 234 160 300 184 349 160 411 183 467 164 521 185 580 177 628 208 657 265 646 325 671 379 650 441 669 500 643 555 657 614 629 668 649 723 624 789 574 839 508 851 445 835 381 856 314 834 249 850 185 828 132 800 104 747 119 683 91 626 104 562 78 506 99 445 80 385 103 329 85 273z" fill="url(#island)" stroke="#c0b779" stroke-width="3"/>
<!-- large warm terrain planes -->
<path d="M101 256 130 197 232 174 293 196 319 258 278 314 205 325 144 301z" fill="#d0c28b" opacity=".83"/>
<path d="M399 196 468 176 568 190 630 226 649 296 608 341 531 324 478 276 417 277z" fill="#aeb675" opacity=".9"/>
<path d="M125 504 184 447 261 451 297 507 267 566 197 581 133 551z" fill="#5c794a"/>
<path d="M470 414 558 390 637 426 645 501 601 541 516 527 472 481z" fill="#4d6a43"/>
<path d="M154 677 229 633 313 661 329 727 272 788 184 789 133 740z" fill="#95a25b" opacity=".95"/>
<path d="M442 660 515 620 611 655 625 733 572 809 483 796 432 746z" fill="#708749"/>
<!-- italian cypress groves -->
<path d="M109 472q54-40 111-11 50-35 90 12v87q-57 40-112 4-50 36-89-2zM478 405q54-38 100-8 44-29 74 9v82q-54 35-96 6-44 36-78 0zM184 718q43-32 83-3 41-23 68 11v53q-41 34-85 7-39 26-66-5z" fill="#2e4b35" stroke="#65814e" stroke-width="2"/>
<g fill="#24442f" stroke="#75915a" stroke-width="2">
 <path d="m130 526 17-48 17 48z"/><path d="m165 546 21-59 21 59z"/><path d="m207 528 17-46 17 46z"/><path d="m242 546 20-55 20 55z"/><path d="m276 526 17-45 17 45z"/>
 <path d="m499 457 17-49 17 49z"/><path d="m532 483 21-60 21 60z"/><path d="m572 460 17-49 17 49z"/><path d="m608 484 19-54 19 54z"/>
 <path d="m194 760 17-47 17 47z"/><path d="m229 782 19-55 19 55z"/><path d="m270 761 17-47 17 47z"/>
</g><g fill="#657d48"><path d="M145 526v14h5v-14m35 20v12h6v-12m40-18v12h5v-12m40 20v12h5v-12m246-87v15h5v-15m42 21v13h5v-13m41 5v13h5v-13M207 760v12h5v-12m40 22v14h5v-14m36-18v13h5v-13"/></g>
<!-- rocky hill -->
<path d="M438 324 493 284 555 304 579 350 551 382 478 373 449 353z" fill="#3a4c35" opacity=".6"/>
<path d="M427 307 477 276 534 290 559 332 536 365 465 355 440 335z" fill="url(#stone)" stroke="#e0d1a8" stroke-width="2"/>
<path d="m427 307 50-31 10 34-22 45-25-20z" fill="#e1d2a8"/><path d="m477 276 57 14 25 42-40-9-32-13z" fill="#989075"/><path d="m465 355 22-45 32 13 40 9-23 33z" fill="#7a7b62"/>
<!-- ford river across terrain -->
<path d="M103 574q64-28 129 5 55 27 106-2 56-31 110 0 51 30 105-9l38 62q-61 40-123 5-50-28-99 5-61 40-117 7-62-36-116-6l-50-29z" fill="#bba979"/>
<path d="M108 582q61-26 122 6 55 28 110-3 55-30 108 1 52 30 107-9l31 45q-62 38-121 3-49-29-100 6-59 39-114 5-61-36-111-7l-39-24z" fill="url(#sea)"/>
<path d="M108 582q61-26 122 6 55 28 110-3 55-30 108 1 52 30 107-9l31 45q-62 38-121 3-49-29-100 6-59 39-114 5-61-36-111-7l-39-24z" fill="url(#waves)"/>
<!-- Roman paved roads -->
<g fill="none" stroke-linecap="round" stroke-linejoin="round"><path d="M377 790 375 725 373 661 376 614 372 579 376 523 367 472 374 421 368 373 380 324 373 280 378 239" stroke="#5b4c37" stroke-width="19"/><path d="M377 790 375 725 373 661 376 614 372 579 376 523 367 472 374 421 368 373 380 324 373 280 378 239" stroke="url(#tile)" stroke-width="12"/><path d="M377 790 375 725 373 661 376 614 372 579 376 523 367 472 374 421 368 373 380 324 373 280 378 239" stroke="#eee1bb" stroke-width="1.4" stroke-dasharray="3 7"/><path d="M371 527Q304 497 254 457L202 420 175 363" stroke="#5b4c37" stroke-width="14"/><path d="M371 527Q304 497 254 457L202 420 175 363" stroke="#cbbb91" stroke-width="8"/><path d="M379 521Q450 490 515 464L571 426 603 365" stroke="#5b4c37" stroke-width="14"/><path d="M379 521Q450 490 515 464L571 426 603 365" stroke="#cbbb91" stroke-width="8"/></g>
<!-- Roman stone bridge -->
<g transform="translate(376 601) rotate(-2)" filter="url(#shadow)"><path d="M-45 12h90l-7 12h-76z" fill="#524734"/><rect x="-41" y="-15" width="82" height="30" rx="3" fill="#b7a37b" stroke="#eee0bd" stroke-width="3"/><path d="M-31-13v26m15-26v26m15-26v26m15-26v26m15-26v26" stroke="#847453" stroke-width="4"/><path d="M-40-12h80M-40 12h80" stroke="#e4d4ac" stroke-width="2"/></g>
<rect x="324" y="625" width="104" height="22" rx="10" fill="#1b241c" stroke="#d1bd8b"/><text x="376" y="640" fill="#f0e2bd" text-anchor="middle" font-family="Arial" font-size="10" font-weight="800">КАМЕННЫЙ МОСТ</text>
<!-- Roman castrum up north -->
<g transform="translate(378 250)" filter="url(#shadow)"><ellipse cy="46" rx="68" ry="19" fill="#26332a"/><path d="M-52 3h104v48H-52z" fill="#bca77d" stroke="#e9dbb6" stroke-width="2"/><path d="M-58 0h116v12H-58z" fill="#dfcfaa" stroke="#806e4f" stroke-width="2"/><path d="M-46-5h16v10h-16m29-10h16v10h-16m29-10h16v10h-16m29-10h16v10h-16" fill="#b9a47c" stroke="#796849" stroke-width="1"/>
<path d="M-19 17v34h38V17q-19-24-38 0z" fill="#66553c" stroke="#e5d2a5" stroke-width="2"/><path d="M-10 30h20v21h-20z" fill="#30271d"/><path d="M0-27v-39" stroke="#483821" stroke-width="3"/><path d="M1-64h36l-13 9 13 9H1z" fill="#9b3430"/><path d="M-43 20h13v12h-13m73-12h13v12H30" fill="#637b7b" stroke="#ece0bd"/></g>
<rect x="328" y="305" width="100" height="20" rx="9" fill="#152018e8" stroke="#e0c891"/><text x="378" y="319" fill="#f5e9cd" text-anchor="middle" font-family="Arial" font-size="10" font-weight="800">КАСТРУМ · ЦЕЛЬ</text>
<!-- watchtower / granary / village -->
<g filter="url(#shadow)"><g transform="translate(177 365)"><path d="M-26 2h52v33h-52z" fill="#c2ad82" stroke="#f0dfb5" stroke-width="2"/><path d="M-32 3 0-21 32 3l-6 7L0-12-26 10z" fill="#833d32"/><path d="M-9 16h18v19H-9z" fill="#493725"/><rect x="-35" y="-10" width="12" height="49" fill="#9a8964" stroke="#e4d3ab" stroke-width="2"/><path d="M-39-10h20v8h-20z" fill="#ded0aa"/></g><g transform="translate(604 365)"><path d="M-32 5h64v35h-64z" fill="#9b744c" stroke="#e2c58d" stroke-width="2"/><path d="M-38 5-23-17h46L38 5z" fill="#9d5439" stroke="#dbac75" stroke-width="2"/><path d="M-17 13v25m17-25v25m17-25v25" stroke="#60472e" stroke-width="4"/><path d="M-35 16h70" stroke="#d9b87a" stroke-width="2"/></g><g transform="translate(255 456)"><path d="M-24 2h48v27h-48z" fill="#c2ad82" stroke="#e8d8b1" stroke-width="2"/><path d="M-30 3 0-18 30 3l-5 6L0-10-24 9z" fill="#824435"/><path d="M-7 16h14v13H-7z" fill="#493725"/></g></g>
<!-- cell move preview only near selected squad -->
<g fill="#f4d477" fill-opacity=".13" stroke="#f4d477" stroke-width="1.7" stroke-opacity=".85"><path d="M330 659h43v48h-43zM374 659h43v48h-43zM418 659h43v48h-43zM286 708h43v48h-43zM330 708h43v48h-43zM374 708h43v48h-43zM418 708h43v48h-43zM462 708h43v48h-43z"/></g>
<path d="M419 727 375 684 375 628" fill="none" stroke="#f5d579" stroke-width="3" stroke-dasharray="6 6"/><path d="m368 633 7-12 7 12" fill="none" stroke="#f5d579" stroke-width="3"/>
<!-- defender squads blue -->
<g text-anchor="middle" font-family="Arial" filter="url(#shadow)"><g><circle cx="332" cy="337" r="19" fill="#385578" stroke="#a7c1d9" stroke-width="2"/><text x="332" y="344" fill="#f3e8d2" font-size="17">🛡</text><rect x="317" y="358" width="30" height="14" rx="7" fill="#172019"/><text x="332" y="368" fill="#f6ead2" font-size="9" font-weight="800">10</text></g><g><circle cx="425" cy="337" r="19" fill="#385578" stroke="#a7c1d9" stroke-width="2"/><text x="425" y="344" fill="#f3e8d2" font-size="16">🏹</text><rect x="410" y="358" width="30" height="14" rx="7" fill="#172019"/><text x="425" y="368" fill="#f6ead2" font-size="9" font-weight="800">8</text></g><g><circle cx="295" cy="428" r="17" fill="#385578" stroke="#a7c1d9" stroke-width="2"/><text x="295" y="434" fill="#f3e8d2" font-size="15">🔱</text></g></g>
<!-- four attacking Roman generals and cohorts -->
<g text-anchor="middle" font-family="Arial" filter="url(#shadow)"><g><circle cx="332" cy="754" r="22" fill="#8c4131" stroke="#e8b27d" stroke-width="2.5"/><text x="332" y="762" fill="#f7ebd3" font-size="19">🛡</text><circle cx="351" cy="735" r="9" fill="#edc66b"/><text x="351" y="739" fill="#282116" font-size="9" font-weight="900">I</text><rect x="311" y="779" width="42" height="15" rx="7" fill="#28201a" stroke="#bc8460"/><text x="332" y="790" fill="#f4e7d2" font-size="8" font-weight="800">HASTATI</text></g><g><circle cx="420" cy="753" r="25" fill="#735533" stroke="#f2d47b" stroke-width="3"/><text x="420" y="761" fill="#f8eccf" font-size="20">🔱</text><circle cx="442" cy="733" r="9" fill="#edc66b"/><text x="442" y="737" fill="#282116" font-size="9" font-weight="900">II</text><rect x="396" y="781" width="48" height="15" rx="7" fill="#28201a" stroke="#e1c573"/><text x="420" y="792" fill="#f4df9c" font-size="8" font-weight="900">TRIARII</text></g><g><circle cx="286" cy="799" r="20" fill="#8c4131" stroke="#dc9d72" stroke-width="2"/><text x="286" y="806" fill="#f7ebd3" font-size="17">🏹</text><circle cx="304" cy="784" r="8" fill="#edc66b"/><text x="304" y="787" fill="#282116" font-size="8" font-weight="900">III</text></g><g><circle cx="469" cy="800" r="20" fill="#8c4131" stroke="#dc9d72" stroke-width="2"/><text x="469" y="807" fill="#f7ebd3" font-size="17">🐎</text><circle cx="487" cy="785" r="8" fill="#edc66b"/><text x="487" y="788" fill="#282116" font-size="8" font-weight="900">IV</text></g></g>
<!-- map callout legend -->
<rect x="519" y="672" width="124" height="98" rx="11" fill="#172019ed" stroke="#adb187"/><text x="532" y="691" fill="#f1e9d6" font-family="Arial" font-size="9" font-weight="800" letter-spacing=".5">РЕЛЬЕФ ДАЁТ ТАКТИКУ</text><circle cx="533" cy="710" r="5" fill="#315038"/><text x="545" y="713" fill="#dfe5d1" font-family="Arial" font-size="9">лес: укрытие</text><circle cx="533" cy="732" r="5" fill="#c6bb92"/><text x="545" y="735" fill="#e9e0ca" font-family="Arial" font-size="9">холм: обзор</text><circle cx="533" cy="754" r="5" fill="#4d8390"/><text x="545" y="757" fill="#d9e8e4" font-family="Arial" font-size="9">река: преграда</text>
<!-- selection bar and mobile commands -->
<rect x="28" y="821" width="694" height="43" rx="10" fill="#182119" stroke="#5a684b"/><circle cx="50" cy="842" r="8" fill="#9eb47a"/><path d="M46 842h8m-4-4 4 4-4 4" fill="none" stroke="#1d261c" stroke-width="1.6"/><text x="68" y="840" fill="#e9e8d7" font-family="Arial" font-size="11" font-weight="800">ГЕНЕРАЛ II · ТРИАРИИ</text><text x="68" y="855" fill="#b8c0a8" font-family="Arial" font-size="9">Клетки хода выделены · цель — занять каменный мост</text>
<rect x="16" y="887" width="718" height="96" rx="15" fill="#29251d" stroke="#635438"/><text x="31" y="909" fill="#f1e6cf" font-family="Georgia" font-size="13" font-weight="700">ПРИКАЗ ОТРЯДАМ</text><text x="720" y="909" fill="#aaa895" text-anchor="end" font-family="Arial" font-size="9">4 ГЕНЕРАЛА</text>
<g font-family="Arial" text-anchor="middle" font-weight="800"><rect x="28" y="919" width="104" height="50" rx="10" fill="#493a27" stroke="#e4c676" stroke-width="1.5"/><text x="80" y="941" fill="#f8eac7" font-size="10">⇧　ДВИНУТЬ</text><text x="80" y="957" fill="#d7c79f" font-size="8">выбранный отряд</text><rect x="141" y="919" width="104" height="50" rx="10" fill="#383126" stroke="#6f6143"/><text x="193" y="941" fill="#eee4ce" font-size="10">⚔　АТАКА</text><text x="193" y="957" fill="#c4b99f" font-size="8">соседняя клетка</text><rect x="254" y="919" width="119" height="50" rx="10" fill="#383126" stroke="#6f6143"/><text x="313" y="941" fill="#eee4ce" font-size="10">🔱　УПОР КОПИЙ</text><text x="313" y="957" fill="#c4b99f" font-size="8">стойка против натиска</text><rect x="382" y="919" width="96" height="50" rx="10" fill="#383126" stroke="#6f6143"/><text x="430" y="941" fill="#eee4ce" font-size="10">↶　ОТХОД</text><text x="430" y="957" fill="#c4b99f" font-size="8">сохранить строй</text><rect x="488" y="919" width="231" height="50" rx="11" fill="#c69d52" stroke="#f0d68f"/><text x="603" y="942" fill="#352918" font-size="11">ЗАВЕРШИТЬ ХОД →</text><text x="603" y="958" fill="#594322" font-size="8">защитники ответят</text></g>
</svg>
